<svg width="96" height="18" viewBox="0 0 96 18" fill="none" xmlns="http://www.w3.org/2000/svg">
<path d="M5.932 14V9.176L6.346 10.292L0.928 1.4H2.854L7.408 8.906H6.364L10.936 1.4H12.718L7.318 10.292L7.714 9.176V14H5.932ZM19.0366 14V11.984L18.9466 11.606V8.168C18.9466 7.436 18.7306 6.872 18.2986 6.476C17.8786 6.068 17.2426 5.864 16.3906 5.864C15.8266 5.864 15.2746 5.96 14.7346 6.152C14.1946 6.332 13.7386 6.578 13.3666 6.89L12.6466 5.594C13.1386 5.198 13.7266 4.898 14.4106 4.694C15.1066 4.478 15.8326 4.37 16.5886 4.37C17.8966 4.37 18.9046 4.688 19.6126 5.324C20.3206 5.96 20.6746 6.932 20.6746 8.24V14H19.0366ZM15.9046 14.108C15.1966 14.108 14.5726 13.988 14.0326 13.748C13.5046 13.508 13.0966 13.178 12.8086 12.758C12.5206 12.326 12.3766 11.84 12.3766 11.3C12.3766 10.784 12.4966 10.316 12.7366 9.896C12.9886 9.476 13.3906 9.14 13.9426 8.888C14.5066 8.636 15.2626 8.51 16.2106 8.51H19.2346V9.752H16.2826C15.4186 9.752 14.8366 9.896 14.5366 10.184C14.2366 10.472 14.0866 10.82 14.0866 11.228C14.0866 11.696 14.2726 12.074 14.6446 12.362C15.0166 12.638 15.5326 12.776 16.1926 12.776C16.8406 12.776 17.4046 12.632 17.8846 12.344C18.3766 12.056 18.7306 11.636 18.9466 11.084L19.2886 12.272C19.0606 12.836 18.6586 13.286 18.0826 13.622C17.5066 13.946 16.7806 14.108 15.9046 14.108ZM28.9664 4.37C29.7464 4.37 30.4304 4.52 31.0184 4.82C31.6184 5.12 32.0864 5.576 32.4224 6.188C32.7584 6.8 32.9264 7.574 32.9264 8.51V14H31.1984V8.708C31.1984 7.784 30.9704 7.088 30.5144 6.62C30.0704 6.152 29.4404 5.918 28.6244 5.918C28.0124 5.918 27.4784 6.038 27.0224 6.278C26.5664 6.518 26.2124 6.872 25.9604 7.34C25.7204 7.808 25.6004 8.39 25.6004 9.086V14H23.8724V4.46H25.5284V7.034L25.2584 6.35C25.5704 5.726 26.0504 5.24 26.6984 4.892C27.3464 4.544 28.1024 4.37 28.9664 4.37ZM40.3003 17.6C39.4243 17.6 38.5723 17.474 37.7443 17.222C36.9283 16.982 36.2623 16.634 35.7463 16.178L36.5743 14.846C37.0183 15.23 37.5643 15.53 38.2123 15.746C38.8603 15.974 39.5383 16.088 40.2463 16.088C41.3743 16.088 42.2023 15.824 42.7303 15.296C43.2583 14.768 43.5223 13.964 43.5223 12.884V10.868L43.7023 8.978L43.6123 7.07V4.46H45.2503V12.704C45.2503 14.384 44.8303 15.62 43.9903 16.412C43.1503 17.204 41.9203 17.6 40.3003 17.6ZM40.0843 13.604C39.1603 13.604 38.3323 13.412 37.6003 13.028C36.8803 12.632 36.3043 12.086 35.8723 11.39C35.4523 10.694 35.2423 9.89 35.2423 8.978C35.2423 8.054 35.4523 7.25 35.8723 6.566C36.3043 5.87 36.8803 5.33 37.6003 4.946C38.3323 4.562 39.1603 4.37 40.0843 4.37C40.9003 4.37 41.6443 4.538 42.3163 4.874C42.9883 5.198 43.5223 5.702 43.9183 6.386C44.3263 7.07 44.5303 7.934 44.5303 8.978C44.5303 10.01 44.3263 10.868 43.9183 11.552C43.5223 12.236 42.9883 12.752 42.3163 13.1C41.6443 13.436 40.9003 13.604 40.0843 13.604ZM40.2823 12.092C40.9183 12.092 41.4823 11.96 41.9743 11.696C42.4663 11.432 42.8503 11.066 43.1263 10.598C43.4143 10.13 43.5583 9.59 43.5583 8.978C43.5583 8.366 43.4143 7.826 43.1263 7.358C42.8503 6.89 42.4663 6.53 41.9743 6.278C41.4823 6.014 40.9183 5.882 40.2823 5.882C39.6463 5.882 39.0763 6.014 38.5723 6.278C38.0803 6.53 37.6903 6.89 37.4023 7.358C37.1263 7.826 36.9883 8.366 36.9883 8.978C36.9883 9.59 37.1263 10.13 37.4023 10.598C37.6903 11.066 38.0803 11.432 38.5723 11.696C39.0763 11.96 39.6463 12.092 40.2823 12.092ZM48.5521 14V4.46H50.2801V14H48.5521ZM49.4161 2.624C49.0801 2.624 48.7981 2.516 48.5701 2.3C48.3541 2.084 48.2461 1.82 48.2461 1.508C48.2461 1.184 48.3541 0.914 48.5701 0.698C48.7981 0.482 49.0801 0.373999 49.4161 0.373999C49.7521 0.373999 50.0281 0.482 50.2441 0.698C50.4721 0.901999 50.5861 1.16 50.5861 1.472C50.5861 1.796 50.4781 2.072 50.2621 2.3C50.0461 2.516 49.7641 2.624 49.4161 2.624ZM53.5794 14V0.643999H55.3074V14H53.5794ZM58.6068 14V4.46H60.3348V14H58.6068ZM59.4708 2.624C59.1348 2.624 58.8528 2.516 58.6248 2.3C58.4088 2.084 58.3008 1.82 58.3008 1.508C58.3008 1.184 58.4088 0.914 58.6248 0.698C58.8528 0.482 59.1348 0.373999 59.4708 0.373999C59.8068 0.373999 60.0828 0.482 60.2988 0.698C60.5268 0.901999 60.6408 1.16 60.6408 1.472C60.6408 1.796 60.5328 2.072 60.3168 2.3C60.1008 2.516 59.8188 2.624 59.4708 2.624ZM65.0381 11.696L65.0741 9.482L70.5641 4.46H72.6521L68.4401 8.6L67.5041 9.392L65.0381 11.696ZM63.6341 14V0.643999H65.3621V14H63.6341ZM70.9241 14L67.1801 9.356L68.2961 7.97L73.0481 14H70.9241ZM74.7259 14V0.643999H76.4539V14H74.7259ZM85.6752 14V11.984L85.5852 11.606V8.168C85.5852 7.436 85.3692 6.872 84.9372 6.476C84.5172 6.068 83.8812 5.864 83.0292 5.864C82.4652 5.864 81.9132 5.96 81.3732 6.152C80.8332 6.332 80.3772 6.578 80.0052 6.89L79.2852 5.594C79.7772 5.198 80.3652 4.898 81.0492 4.694C81.7452 4.478 82.4712 4.37 83.2272 4.37C84.5352 4.37 85.5432 4.688 86.2512 5.324C86.9592 5.96 87.3132 6.932 87.3132 8.24V14H85.6752ZM82.5432 14.108C81.8352 14.108 81.2112 13.988 80.6712 13.748C80.1432 13.508 79.7352 13.178 79.4472 12.758C79.1592 12.326 79.0152 11.84 79.0152 11.3C79.0152 10.784 79.1352 10.316 79.3752 9.896C79.6272 9.476 80.0292 9.14 80.5812 8.888C81.1452 8.636 81.9012 8.51 82.8492 8.51H85.8732V9.752H82.9212C82.0572 9.752 81.4752 9.896 81.1752 10.184C80.8752 10.472 80.7252 10.82 80.7252 11.228C80.7252 11.696 80.9112 12.074 81.2832 12.362C81.6552 12.638 82.1712 12.776 82.8312 12.776C83.4792 12.776 84.0432 12.632 84.5232 12.344C85.0152 12.056 85.3692 11.636 85.5852 11.084L85.9272 12.272C85.6992 12.836 85.2972 13.286 84.7212 13.622C84.1452 13.946 83.4192 14.108 82.5432 14.108ZM90.511 14V4.46H92.167V7.052L92.005 6.404C92.269 5.744 92.713 5.24 93.337 4.892C93.961 4.544 94.729 4.37 95.641 4.37V6.044C95.569 6.032 95.497 6.026 95.425 6.026C95.365 6.026 95.305 6.026 95.245 6.026C94.321 6.026 93.589 6.302 93.049 6.854C92.509 7.406 92.239 8.204 92.239 9.248V14H90.511Z" fill="white"/>
</svg>
