<svg width="200" height="37" viewBox="0 0 200 37" fill="none" xmlns="http://www.w3.org/2000/svg">
<path d="M10.252 29V18.704L11.584 22.232L0.496 3.8H6.688L15.184 17.948H11.62L20.152 3.8H25.876L14.788 22.232L16.084 18.704V29H10.252ZM37.4447 29V25.22L37.0847 24.392V17.624C37.0847 16.424 36.7127 15.488 35.9687 14.816C35.2487 14.144 34.1327 13.808 32.6207 13.808C31.5887 13.808 30.5687 13.976 29.5607 14.312C28.5767 14.624 27.7367 15.056 27.0407 15.608L25.0247 11.684C26.0807 10.94 27.3527 10.364 28.8407 9.956C30.3287 9.548 31.8407 9.344 33.3767 9.344C36.3287 9.344 38.6207 10.04 40.2527 11.432C41.8847 12.824 42.7007 14.996 42.7007 17.948V29H37.4447ZM31.5407 29.288C30.0287 29.288 28.7327 29.036 27.6527 28.532C26.5727 28.004 25.7447 27.296 25.1687 26.408C24.5927 25.52 24.3047 24.524 24.3047 23.42C24.3047 22.268 24.5807 21.26 25.1327 20.396C25.7087 19.532 26.6087 18.86 27.8327 18.38C29.0567 17.876 30.6527 17.624 32.6207 17.624H37.7687V20.9H33.2327C31.9127 20.9 31.0007 21.116 30.4967 21.548C30.0167 21.98 29.7767 22.52 29.7767 23.168C29.7767 23.888 30.0527 24.464 30.6047 24.896C31.1807 25.304 31.9607 25.508 32.9447 25.508C33.8807 25.508 34.7207 25.292 35.4647 24.86C36.2087 24.404 36.7487 23.744 37.0847 22.88L37.9487 25.472C37.5407 26.72 36.7967 27.668 35.7167 28.316C34.6367 28.964 33.2447 29.288 31.5407 29.288ZM59.5554 9.344C61.0914 9.344 62.4594 9.656 63.6594 10.28C64.8834 10.88 65.8434 11.816 66.5394 13.088C67.2354 14.336 67.5834 15.944 67.5834 17.912V29H61.9674V18.776C61.9674 17.216 61.6194 16.064 60.9234 15.32C60.2514 14.576 59.2914 14.204 58.0434 14.204C57.1554 14.204 56.3514 14.396 55.6314 14.78C54.9354 15.14 54.3834 15.704 53.9754 16.472C53.5914 17.24 53.3994 18.224 53.3994 19.424V29H47.7834V9.632H53.1474V14.996L52.1394 13.376C52.8354 12.08 53.8314 11.084 55.1274 10.388C56.4234 9.692 57.8994 9.344 59.5554 9.344ZM81.9227 36.272C80.0987 36.272 78.3347 36.044 76.6307 35.588C74.9507 35.156 73.5467 34.496 72.4187 33.608L74.6507 29.576C75.4667 30.248 76.4987 30.776 77.7467 31.16C79.0187 31.568 80.2667 31.772 81.4907 31.772C83.4827 31.772 84.9227 31.328 85.8107 30.44C86.7227 29.552 87.1787 28.232 87.1787 26.48V23.564L87.5387 18.704L87.4667 13.808V9.632H92.7947V25.76C92.7947 29.36 91.8587 32.012 89.9867 33.716C88.1147 35.42 85.4267 36.272 81.9227 36.272ZM81.0587 28.064C79.2587 28.064 77.6267 27.68 76.1627 26.912C74.7227 26.12 73.5587 25.028 72.6707 23.636C71.8067 22.22 71.3747 20.576 71.3747 18.704C71.3747 16.808 71.8067 15.164 72.6707 13.772C73.5587 12.356 74.7227 11.264 76.1627 10.496C77.6267 9.728 79.2587 9.344 81.0587 9.344C82.6907 9.344 84.1307 9.68 85.3787 10.352C86.6267 11 87.5987 12.02 88.2947 13.412C88.9907 14.78 89.3387 16.544 89.3387 18.704C89.3387 20.84 88.9907 22.604 88.2947 23.996C87.5987 25.364 86.6267 26.384 85.3787 27.056C84.1307 27.728 82.6907 28.064 81.0587 28.064ZM82.1747 23.456C83.1587 23.456 84.0347 23.264 84.8027 22.88C85.5707 22.472 86.1707 21.908 86.6027 21.188C87.0347 20.468 87.2507 19.64 87.2507 18.704C87.2507 17.744 87.0347 16.916 86.6027 16.22C86.1707 15.5 85.5707 14.948 84.8027 14.564C84.0347 14.156 83.1587 13.952 82.1747 13.952C81.1907 13.952 80.3147 14.156 79.5467 14.564C78.7787 14.948 78.1667 15.5 77.7107 16.22C77.2787 16.916 77.0627 17.744 77.0627 18.704C77.0627 19.64 77.2787 20.468 77.7107 21.188C78.1667 21.908 78.7787 22.472 79.5467 22.88C80.3147 23.264 81.1907 23.456 82.1747 23.456ZM98.0217 29V9.632H103.638V29H98.0217ZM100.83 6.932C99.7977 6.932 98.9577 6.632 98.3097 6.032C97.6617 5.432 97.3377 4.688 97.3377 3.8C97.3377 2.912 97.6617 2.168 98.3097 1.568C98.9577 0.967998 99.7977 0.667998 100.83 0.667998C101.862 0.667998 102.702 0.955998 103.35 1.532C103.998 2.084 104.322 2.804 104.322 3.692C104.322 4.628 103.998 5.408 103.35 6.032C102.726 6.632 101.886 6.932 100.83 6.932ZM108.85 29V2.288H114.466V29H108.85ZM119.678 29V9.632H125.294V29H119.678ZM122.486 6.932C121.454 6.932 120.614 6.632 119.966 6.032C119.318 5.432 118.994 4.688 118.994 3.8C118.994 2.912 119.318 2.168 119.966 1.568C120.614 0.967998 121.454 0.667998 122.486 0.667998C123.518 0.667998 124.358 0.955998 125.006 1.532C125.654 2.084 125.978 2.804 125.978 3.692C125.978 4.628 125.654 5.408 125.006 6.032C124.382 6.632 123.542 6.932 122.486 6.932ZM135.15 25.04L135.294 18.2L144.33 9.632H151.026L142.35 18.452L139.434 20.828L135.15 25.04ZM130.506 29V2.288H136.122V29H130.506ZM144.942 29L138.39 20.864L141.918 16.508L151.746 29H144.942ZM154.272 29V2.288H159.888V29H154.272ZM176.98 29V25.22L176.62 24.392V17.624C176.62 16.424 176.248 15.488 175.504 14.816C174.784 14.144 173.668 13.808 172.156 13.808C171.124 13.808 170.104 13.976 169.096 14.312C168.112 14.624 167.272 15.056 166.576 15.608L164.56 11.684C165.616 10.94 166.888 10.364 168.376 9.956C169.864 9.548 171.376 9.344 172.912 9.344C175.864 9.344 178.156 10.04 179.788 11.432C181.42 12.824 182.236 14.996 182.236 17.948V29H176.98ZM171.076 29.288C169.564 29.288 168.268 29.036 167.188 28.532C166.108 28.004 165.28 27.296 164.704 26.408C164.128 25.52 163.84 24.524 163.84 23.42C163.84 22.268 164.116 21.26 164.668 20.396C165.244 19.532 166.144 18.86 167.368 18.38C168.592 17.876 170.188 17.624 172.156 17.624H177.304V20.9H172.768C171.448 20.9 170.536 21.116 170.032 21.548C169.552 21.98 169.312 22.52 169.312 23.168C169.312 23.888 169.588 24.464 170.14 24.896C170.716 25.304 171.496 25.508 172.48 25.508C173.416 25.508 174.256 25.292 175 24.86C175.744 24.404 176.284 23.744 176.62 22.88L177.484 25.472C177.076 26.72 176.332 27.668 175.252 28.316C174.172 28.964 172.78 29.288 171.076 29.288ZM187.319 29V9.632H192.683V15.104L191.927 13.52C192.503 12.152 193.427 11.12 194.699 10.424C195.971 9.704 197.519 9.344 199.343 9.344V14.528C199.103 14.504 198.887 14.492 198.695 14.492C198.503 14.468 198.299 14.456 198.083 14.456C196.547 14.456 195.299 14.9 194.339 15.788C193.403 16.652 192.935 18.008 192.935 19.856V29H187.319Z" fill="white"/>
</svg>
